<svg width="35" height="40" viewBox="0 0 35 40" fill="none" xmlns="http://www.w3.org/2000/svg">
    <path d="M22.5 0H12.5H10C8.61719 0 7.5 1.11719 7.5 2.5C7.5 3.88281 8.61719 5 10 5V15.375C10 16.2969 9.74219 17.2109 9.25781 17.9922L0.804688 31.7344C0.28125 32.5938 0 33.5703 0 34.5781C0 37.5703 2.42969 40 5.42188 40H29.5781C32.5703 40 35 37.5703 35 34.5781C35 33.5781 34.7188 32.5938 34.1953 31.7344L25.7422 18C25.2578 17.2109 25 16.3047 25 15.3828V5C26.3828 5 27.5 3.88281 27.5 2.5C27.5 1.11719 26.3828 0 25 0H22.5ZM15 15.375V5H20V15.375C20 17.2266 20.5156 19.0391 21.4844 20.6172L24.1797 25H10.8203L13.5156 20.6172C14.4844 19.0391 15 17.2266 15 15.375Z" fill="white"/>
</svg>
