<svg width="40" height="38" viewBox="0 0 40 38" fill="none" xmlns="http://www.w3.org/2000/svg">
    <path d="M0 31.6667C0 33.0679 1.11719 34.2 2.5 34.2H6.77344C7.73438 36.4404 9.9375 38 12.5 38C15.0625 38 17.2656 36.4404 18.2266 34.2H37.5C38.8828 34.2 40 33.0679 40 31.6667C40 30.2654 38.8828 29.1333 37.5 29.1333H18.2266C17.2656 26.8929 15.0625 25.3333 12.5 25.3333C9.9375 25.3333 7.73438 26.8929 6.77344 29.1333H2.5C1.11719 29.1333 0 30.2654 0 31.6667ZM10 31.6667C10 30.9948 10.2634 30.3504 10.7322 29.8753C11.2011 29.4002 11.837 29.1333 12.5 29.1333C13.163 29.1333 13.7989 29.4002 14.2678 29.8753C14.7366 30.3504 15 30.9948 15 31.6667C15 32.3385 14.7366 32.9829 14.2678 33.458C13.7989 33.9331 13.163 34.2 12.5 34.2C11.837 34.2 11.2011 33.9331 10.7322 33.458C10.2634 32.9829 10 32.3385 10 31.6667ZM25 19C25 18.3281 25.2634 17.6838 25.7322 17.2087C26.2011 16.7336 26.837 16.4667 27.5 16.4667C28.163 16.4667 28.7989 16.7336 29.2678 17.2087C29.7366 17.6838 30 18.3281 30 19C30 19.6719 29.7366 20.3162 29.2678 20.7913C28.7989 21.2664 28.163 21.5333 27.5 21.5333C26.837 21.5333 26.2011 21.2664 25.7322 20.7913C25.2634 20.3162 25 19.6719 25 19ZM27.5 12.6667C24.9375 12.6667 22.7344 14.2263 21.7734 16.4667H2.5C1.11719 16.4667 0 17.5987 0 19C0 20.4013 1.11719 21.5333 2.5 21.5333H21.7734C22.7344 23.7737 24.9375 25.3333 27.5 25.3333C30.0625 25.3333 32.2656 23.7737 33.2266 21.5333H37.5C38.8828 21.5333 40 20.4013 40 19C40 17.5987 38.8828 16.4667 37.5 16.4667H33.2266C32.2656 14.2263 30.0625 12.6667 27.5 12.6667ZM15 8.86667C14.337 8.86667 13.7011 8.59976 13.2322 8.12467C12.7634 7.64958 12.5 7.00521 12.5 6.33333C12.5 5.66145 12.7634 5.01709 13.2322 4.542C13.7011 4.0669 14.337 3.8 15 3.8C15.663 3.8 16.2989 4.0669 16.7678 4.542C17.2366 5.01709 17.5 5.66145 17.5 6.33333C17.5 7.00521 17.2366 7.64958 16.7678 8.12467C16.2989 8.59976 15.663 8.86667 15 8.86667ZM20.7266 3.8C19.7656 1.55958 17.5625 0 15 0C12.4375 0 10.2344 1.55958 9.27344 3.8H2.5C1.11719 3.8 0 4.93208 0 6.33333C0 7.73458 1.11719 8.86667 2.5 8.86667H9.27344C10.2344 11.1071 12.4375 12.6667 15 12.6667C17.5625 12.6667 19.7656 11.1071 20.7266 8.86667H37.5C38.8828 8.86667 40 7.73458 40 6.33333C40 4.93208 38.8828 3.8 37.5 3.8H20.7266Z" fill="white"/>
</svg>
