<svg width="40" height="42" viewBox="0 0 40 42" fill="none" xmlns="http://www.w3.org/2000/svg">
    <path d="M20 21C23.031 21 25.9379 19.8938 28.0812 17.9246C30.2245 15.9555 31.4286 13.2848 31.4286 10.5C31.4286 7.71523 30.2245 5.04451 28.0812 3.07538C25.9379 1.10625 23.031 0 20 0C16.969 0 14.0621 1.10625 11.9188 3.07538C9.77551 5.04451 8.57143 7.71523 8.57143 10.5C8.57143 13.2848 9.77551 15.9555 11.9188 17.9246C14.0621 19.8938 16.969 21 20 21ZM15.9196 24.9375C7.125 24.9375 0 31.4836 0 39.5637C0 40.909 1.1875 42 2.65179 42H37.3482C38.8125 42 40 40.909 40 39.5637C40 31.4836 32.875 24.9375 24.0804 24.9375H15.9196Z" fill="white"/>
</svg>
